<svg width="34" height="34" viewBox="0 0 34 34" fill="none" xmlns="http://www.w3.org/2000/svg">
<path fill-rule="evenodd" clip-rule="evenodd" d="M23.8068 13.6999C23.6668 13.5553 23.4693 13.4737 23.2623 13.4737H23.2608L10.7363 13.4987C10.5285 13.4995 10.3311 13.5818 10.1918 13.7271C10.0518 13.8717 9.98403 14.0657 10.0032 14.2611L10.9404 23.4554C10.9625 24.6643 12.0751 26 13.5583 26H20.452C21.8579 26 23.0478 24.9242 23.0699 23.6429L23.9969 14.2331C24.016 14.0377 23.9468 13.8445 23.8068 13.6999Z" fill="#5D3EBC"/>
<path fill-rule="evenodd" clip-rule="evenodd" d="M19.1 15.499V12.5269C19.1 11.2878 18.1781 10.3179 17 10.3179C15.8219 10.3179 14.9 11.2878 14.9 12.5269V15.499C14.9 15.8627 14.5871 16.1579 14.2 16.1579C13.8129 16.1579 13.5 15.8627 13.5 15.499V12.5269C13.5 10.5494 15.0358 9 17 9C18.9642 9 20.5 10.5494 20.5 12.5269V15.499C20.5 15.8627 20.1871 16.1579 19.8 16.1579C19.4129 16.1579 19.1 15.8627 19.1 15.499Z" fill="#FFD10D"/>
</svg>
