<svg width="19" height="18" viewBox="0 0 19 18" fill="none" xmlns="http://www.w3.org/2000/svg">
<path d="M15.4482 4.5H11.8482C11.8482 3.25725 10.841 2.25 9.59825 2.25C8.3555 2.25 7.34825 3.25725 7.34825 4.5H3.74825C3.5 4.5 3.29825 4.70175 3.29825 4.95V6.3C3.29825 6.54825 3.5 6.75 3.74825 6.75H4.19825L5.35475 14.787C5.432 15.3337 5.89625 15.7425 6.44825 15.75H12.6762C13.2335 15.7485 13.7052 15.3383 13.7832 14.787L14.9352 6.75H15.4482C15.6965 6.75 15.8982 6.54825 15.8982 6.3V4.95C15.8982 4.70175 15.6965 4.5 15.4482 4.5ZM8.05025 13.5315H7.99625C7.63925 13.5547 7.3295 13.2855 7.30325 12.9285L7.01525 8.8335C6.992 8.4765 7.26125 8.16675 7.61825 8.1405H7.67225C8.02925 8.11725 8.339 8.3865 8.36525 8.7435L8.65325 12.8385C8.6765 13.1955 8.40725 13.5052 8.05025 13.5315ZM11.8887 12.933C11.8625 13.29 11.5527 13.5592 11.1957 13.536H11.1417C10.7847 13.5098 10.5155 13.2 10.5387 12.843L10.8267 8.748C10.853 8.391 11.1627 8.12175 11.5197 8.145H11.5737C11.9307 8.17125 12.2 8.481 12.1767 8.838L11.8887 12.933ZM9.59825 3.6C10.0955 3.6 10.4982 4.00275 10.4982 4.5H8.69825C8.69825 4.00275 9.101 3.6 9.59825 3.6Z" fill="#5D3EBC"/>
</svg>
